<svg width="41" height="41" fill="none" xmlns="http://www.w3.org/2000/svg"><path d="M20.504.5a20.022 20.022 0 0119.99 19.504l.006.497a20.002 20.002 0 01-23.903 19.614A20 20 0 0119.764.514l.74-.014zm1.21 7.214a4.927 4.927 0 00-4.927 4.927v3.004h-1.704a.81.81 0 00-.514.183l-.058.054a.81.81 0 00-.238.572v3.638a.81.81 0 00.81.81h1.704v11.575a.81.81 0 00.81.81h4.413a.81.81 0 00.81-.81V20.901h2.699v0a.809.809 0 00.807-.739v0l.305-3.638a.813.813 0 00-.017-.248l-.022-.08-.031-.078a.806.806 0 00-.33-.364l-.075-.038-.078-.03a.812.812 0 00-.245-.041h-3.014v-2.08a.598.598 0 01.598-.594h2.465a.81.81 0 00.808-.81V8.522a.809.809 0 00-.182-.512l-.054-.06-.06-.054a.809.809 0 00-.512-.182h-4.168z" fill="#000" stroke="#fff"/></svg>