<svg width="15" height="9" fill="none" xmlns="http://www.w3.org/2000/svg"><path fill-rule="evenodd" clip-rule="evenodd" d="M14.78 8.7a.914.914 0 00.22-.599.914.914 0 00-.22-.599L8.584.496A1.468 1.468 0 008.1.13a1.359 1.359 0 00-1.154 0c-.182.086-.347.21-.483.367L.219 7.553a.93.93 0 00-.008 1.19c.068.08.15.144.242.189a.68.68 0 00.583.004.734.734 0 00.244-.185l5.713-6.458a.734.734 0 01.242-.184.68.68 0 01.577 0 .734.734 0 01.241.184L13.721 8.7c.068.079.15.141.242.184a.679.679 0 00.576 0 .732.732 0 00.242-.183z" fill="#fff"/></svg>