<svg width="42" height="42" fill="none" xmlns="http://www.w3.org/2000/svg"><g clip-path="url(#a)"><rect width="42" height="42" rx="21" fill="#fff"/><path d="M29.527 14.55a3.623 3.623 0 00-2.078-2.077 6.051 6.051 0 00-2.03-.376c-1.153-.053-1.499-.066-4.419-.066-2.92 0-3.266.013-4.419.066a6.05 6.05 0 00-2.032.376 3.624 3.624 0 00-2.076 2.078 6.051 6.051 0 00-.376 2.03c-.053 1.153-.066 1.499-.066 4.419 0 2.92.013 3.266.066 4.419a6.05 6.05 0 00.376 2.032 3.624 3.624 0 002.078 2.076c.65.24 1.337.368 2.03.376 1.153.053 1.499.066 4.419.066 2.92 0 3.266-.013 4.419-.066a6.05 6.05 0 002.032-.376 3.623 3.623 0 002.076-2.078c.24-.65.368-1.337.376-2.03.053-1.153.066-1.499.066-4.419 0-2.92-.013-3.266-.066-4.419a6.05 6.05 0 00-.376-2.032zM21 26.616a5.618 5.618 0 110-11.236 5.618 5.618 0 010 11.236zm5.838-10.143a1.312 1.312 0 110-2.624 1.312 1.312 0 010 2.624z" fill="#000"/><path d="M21 24.646a3.647 3.647 0 100-7.293 3.647 3.647 0 000 7.293z" fill="#000"/><path d="M21 0a21 21 0 100 42 21 21 0 000-42zm10.872 25.51a8.03 8.03 0 01-.51 2.654 5.59 5.59 0 01-3.198 3.198c-.85.319-1.746.491-2.653.51-1.168.052-1.54.066-4.511.066-2.97 0-3.343-.014-4.51-.066a8.03 8.03 0 01-2.654-.51 5.59 5.59 0 01-3.198-3.198 8.03 8.03 0 01-.51-2.653c-.052-1.168-.066-1.54-.066-4.511 0-2.97.014-3.343.066-4.51a8.03 8.03 0 01.51-2.654 5.59 5.59 0 013.198-3.198 8.03 8.03 0 012.653-.51c1.168-.052 1.54-.066 4.511-.066 2.97 0 3.343.014 4.51.066a8.029 8.029 0 012.654.51 5.59 5.59 0 013.198 3.198c.319.85.491 1.746.51 2.653.052 1.168.066 1.54.066 4.511 0 2.97-.014 3.343-.066 4.51z" fill="#000"/></g><rect x=".5" y=".5" width="41" height="41" rx="20.5" stroke="#fff"/><defs><clipPath id="a"><rect width="42" height="42" rx="21" fill="#fff"/></clipPath></defs></svg>