<svg width="43" height="43" fill="none" xmlns="http://www.w3.org/2000/svg"><g clip-path="url(#a)" stroke="#fff" stroke-miterlimit="10"><path d="M37.013.31H5.988A5.677 5.677 0 00.31 5.988v31.026a5.677 5.677 0 005.677 5.676h31.025a5.677 5.677 0 005.676-5.676V5.987A5.677 5.677 0 0037.013.311z"/><path d="M32.63 19.02c-.212 0-.423.03-.622.03a6.939 6.939 0 01-5.808-3.14v10.695a7.908 7.908 0 11-7.927-7.903h.491v3.892a4.348 4.348 0 00-.49-.05 4.041 4.041 0 100 8.083 4.134 4.134 0 004.196-3.985l.037-18.168h3.73a6.939 6.939 0 006.399 6.218v4.352"/></g><rect x=".5" y=".5" width="42" height="42" rx="21" stroke="#fff"/><defs><clipPath id="a"><rect width="43" height="43" rx="21.5" fill="#fff"/></clipPath></defs></svg>