<svg width="41" height="41" fill="none" xmlns="http://www.w3.org/2000/svg"><rect x=".5" y=".5" width="40" height="40" rx="20" stroke="#fff"/><path fill-rule="evenodd" clip-rule="evenodd" d="M38.426 6.615a4.003 4.003 0 00-4.003-4.002H6.565a4.003 4.003 0 00-4.003 4.002v27.859a4.003 4.003 0 004.003 4.003h27.858a4.003 4.003 0 004.003-4.003V6.615z" fill="#000"/><path fill-rule="evenodd" clip-rule="evenodd" d="M16.948 21.404L7.4 7.736h7.72l5.948 8.514 6.803-8.514h5.718l-9.854 12.331 9.282 13.286h-7.719l-5.681-8.132-6.498 8.132H7.398l9.55-11.95zm9.243 10.234l-15.5-22.186h3.534l15.5 22.186h-3.534z" fill="#fff"/></svg>