<svg width="42" height="42" fill="none" xmlns="http://www.w3.org/2000/svg"><g clip-path="url(#a)"><path fill-rule="evenodd" clip-rule="evenodd" d="M32.36 17.692c-.161-2.214-.565-4.501-3.397-4.669a139.984 139.984 0 00-15.93 0c-2.832.164-3.235 2.455-3.396 4.67a44.297 44.297 0 000 6.614c.16 2.215.564 4.502 3.396 4.67 5.306.302 10.624.302 15.93 0 2.832-.164 3.236-2.455 3.396-4.67a44.289 44.289 0 000-6.614zm-13.657 6.261v-6.562l6.234 3.28-6.234 3.282z" fill="#fff"/></g><rect x=".5" y=".5" width="41" height="41" rx="20.5" stroke="#fff"/><defs><clipPath id="a"><rect width="42" height="42" rx="21" fill="#fff"/></clipPath></defs></svg>